<?xml version="1.0" standalone="no"?>
<!DOCTYPE svg PUBLIC "-//W3C//DTD SVG 20010904//EN"
 "http://www.w3.org/TR/2001/REC-SVG-20010904/DTD/svg10.dtd">
<svg version="1.0" xmlns="http://www.w3.org/2000/svg"
 width="2078.000000pt" height="2056.000000pt" viewBox="0 0 2078.000000 2056.000000"
 preserveAspectRatio="xMidYMid meet">

<g transform="translate(0.000000,2056.000000) scale(0.100000,-0.100000)"
fill="#fff" stroke="none">
<path d="M10109 20556 c-2 -2 -93 -6 -202 -10 -109 -4 -210 -9 -225 -11 -15
-2 -63 -7 -107 -10 -233 -15 -590 -57 -890 -105 -309 -49 -887 -178 -1160
-260 -38 -12 -78 -23 -88 -25 -109 -24 -833 -273 -881 -302 -6 -4 -15 -8 -21
-9 -16 -3 -245 -99 -430 -181 -162 -72 -573 -276 -700 -348 -33 -18 -74 -40
-90 -48 -17 -8 -60 -32 -95 -53 -36 -21 -82 -48 -103 -59 -20 -11 -37 -23 -37
-27 0 -5 -5 -8 -11 -8 -11 0 -148 -80 -224 -130 -97 -64 -192 -126 -214 -138
-14 -7 -61 -39 -106 -70 -44 -31 -104 -73 -133 -92 -28 -19 -52 -38 -52 -42 0
-5 -5 -8 -11 -8 -9 0 -332 -239 -422 -312 -179 -146 -273 -223 -302 -249 -16
-15 -70 -62 -120 -105 -141 -122 -182 -161 -485 -464 -242 -241 -443 -459
-612 -661 -20 -24 -70 -84 -112 -134 -41 -49 -75 -96 -76 -102 0 -7 -4 -13 -8
-13 -11 0 -259 -331 -381 -509 -363 -524 -671 -1076 -935 -1671 -45 -102 -102
-234 -126 -295 -24 -60 -49 -123 -56 -140 -15 -36 -68 -181 -135 -370 -104
-291 -249 -806 -319 -1130 -133 -617 -208 -1228 -230 -1860 -9 -281 -1 -807
15 -975 2 -25 7 -83 10 -130 29 -421 120 -1030 215 -1445 11 -49 23 -101 26
-115 62 -294 265 -958 388 -1266 20 -50 36 -94 36 -98 0 -3 9 -25 19 -49 11
-23 27 -64 37 -90 9 -26 21 -50 25 -53 5 -3 9 -12 9 -20 0 -8 27 -76 61 -152
206 -466 445 -923 666 -1272 29 -47 59 -94 66 -105 72 -118 101 -161 108 -163
5 -2 9 -8 9 -14 0 -12 61 -102 72 -106 4 -2 8 -8 8 -14 0 -12 70 -111 82 -116
5 -2 8 -8 8 -14 0 -5 28 -47 62 -93 35 -46 70 -94 78 -106 27 -40 192 -254
209 -270 9 -9 25 -29 36 -44 26 -37 66 -87 85 -108 8 -8 27 -31 42 -49 231
-285 595 -669 918 -967 174 -160 175 -160 310 -275 63 -54 124 -105 135 -115
359 -311 1108 -822 1580 -1076 50 -27 131 -71 180 -97 144 -78 450 -226 635
-308 41 -18 102 -45 135 -60 58 -26 240 -99 435 -175 288 -112 836 -280 1200
-369 513 -125 1182 -232 1630 -261 52 -3 109 -8 125 -10 134 -17 560 -27 890
-22 440 8 679 23 1095 73 197 23 234 28 400 54 126 19 399 70 520 97 63 13
126 27 140 29 29 6 334 83 470 119 233 62 720 218 815 260 17 8 62 25 100 39
264 94 583 234 950 416 292 145 532 273 562 299 7 6 14 11 17 11 14 0 360 210
364 222 2 4 8 8 13 8 12 0 434 280 482 320 6 6 77 58 157 117 80 58 179 133
220 167 41 34 82 66 90 73 8 6 75 61 148 122 128 106 201 169 356 311 102 92
568 560 656 658 41 46 86 96 100 111 14 15 40 45 58 67 19 21 56 65 84 97 28
31 73 85 100 120 28 34 58 72 68 84 16 19 90 112 168 212 15 19 34 44 42 57 8
12 40 55 71 95 57 76 156 216 174 247 6 9 13 19 16 22 12 11 149 222 149 230
0 4 3 10 8 12 11 5 252 390 252 404 0 2 11 21 23 42 22 33 41 68 129 227 43
78 279 550 322 645 443 973 736 2050 850 3125 45 426 51 553 51 1095 -1 504
-3 572 -41 980 -15 166 -72 591 -100 750 -154 870 -401 1670 -770 2490 -144
321 -578 1122 -616 1138 -4 2 -8 8 -8 13 0 6 -19 40 -43 77 -24 37 -52 82 -62
100 -11 17 -23 32 -27 32 -4 0 -8 5 -8 11 0 12 -60 103 -72 107 -4 2 -8 8 -8
13 0 7 -172 257 -202 294 -17 20 -114 149 -143 190 -16 23 -36 48 -43 56 -6 8
-53 66 -103 129 -49 63 -96 120 -102 125 -7 6 -30 33 -52 60 -21 28 -48 59
-60 71 -11 12 -38 43 -60 69 -206 248 -728 770 -989 990 -26 22 -64 55 -84 74
-21 18 -52 45 -71 60 -19 14 -44 35 -56 46 -12 11 -36 31 -54 45 -18 14 -63
50 -100 80 -104 85 -270 211 -342 260 -12 8 -43 31 -68 51 -25 19 -73 53 -106
75 -33 21 -62 42 -65 45 -7 9 -342 228 -425 279 -110 67 -258 154 -285 168
-14 7 -41 23 -61 35 -20 12 -81 46 -135 75 -55 29 -110 60 -124 68 -46 27
-374 190 -480 238 -58 27 -138 64 -178 82 -41 19 -78 34 -83 34 -5 0 -20 6
-32 14 -12 8 -131 57 -263 110 -356 140 -785 283 -1119 372 -191 50 -280 73
-305 77 -14 3 -52 12 -85 20 -346 89 -1083 201 -1515 232 -47 3 -110 8 -140
10 -210 18 -966 34 -981 21z m726 -1916 c1023 -55 1997 -281 2925 -676 298
-126 945 -458 1026 -524 10 -9 -7 -39 -76 -138 -158 -228 -205 -316 -302 -562
-136 -344 -179 -494 -177 -620 1 -30 0 -162 -1 -292 -1 -193 -4 -239 -16 -249
-21 -17 -57 19 -75 74 -7 23 -24 67 -37 97 -42 94 -112 292 -146 415 -30 107
-36 135 -45 221 -6 49 -15 104 -20 123 -6 18 -13 78 -17 132 -8 120 -22 128
-63 37 -16 -35 -42 -92 -59 -128 -43 -93 -79 -189 -91 -240 -6 -25 -22 -80
-36 -123 -14 -43 -25 -86 -25 -96 0 -10 -6 -36 -14 -58 -14 -40 -40 -237 -51
-383 -3 -41 -8 -97 -10 -125 -17 -184 -24 -377 -19 -476 6 -97 4 -121 -10
-151 -27 -56 -53 -80 -76 -68 -29 16 -211 336 -240 424 -7 21 -18 50 -26 64
-8 15 -14 34 -14 42 0 8 -9 33 -20 55 -11 22 -19 48 -20 57 0 10 -12 48 -26
85 -24 62 -34 113 -52 247 -4 27 -13 51 -20 54 -28 9 -163 -322 -176 -433 -3
-27 -11 -81 -16 -120 -18 -123 -21 -573 -5 -735 8 -80 14 -165 13 -190 -1 -25
4 -103 12 -175 17 -144 18 -274 4 -342 -7 -35 -38 -28 -70 15 -15 20 -30 39
-34 42 -3 3 -39 48 -81 100 -93 117 -163 233 -235 387 -30 65 -61 132 -69 148
-41 87 -72 171 -101 283 -16 59 -26 73 -39 52 -9 -14 -41 -144 -64 -263 -22
-110 -23 -155 -7 -627 3 -80 30 -265 45 -303 6 -16 11 -41 11 -57 0 -16 4 -39
9 -52 5 -13 15 -57 22 -98 7 -41 16 -79 20 -85 4 -5 14 -44 23 -85 9 -41 23
-102 32 -135 32 -124 36 -143 46 -252 12 -120 7 -143 -34 -143 -20 0 -103 67
-212 169 -64 62 -200 236 -226 291 -25 55 -74 130 -84 130 -5 0 -6 -17 -3 -37
3 -21 11 -69 17 -108 6 -38 8 -79 6 -91 -7 -28 18 -269 44 -419 12 -66 25
-152 30 -192 5 -40 14 -81 19 -92 6 -11 11 -29 11 -39 0 -28 95 -285 131 -354
24 -47 28 -65 23 -100 -7 -52 -22 -85 -41 -93 -34 -13 -366 329 -468 481 -19
29 -42 55 -51 58 -14 6 -16 1 -10 -36 8 -46 30 -246 46 -414 5 -55 12 -107 15
-115 3 -7 9 -43 14 -79 13 -91 55 -248 98 -360 83 -219 102 -255 175 -337 21
-24 38 -50 38 -58 0 -21 -18 -55 -30 -55 -20 0 -149 96 -213 159 -38 36 -105
112 -150 169 -82 104 -115 127 -103 75 11 -50 36 -277 36 -330 0 -29 6 -70 14
-90 8 -21 17 -58 21 -83 3 -25 22 -83 41 -130 20 -47 44 -107 55 -135 37 -95
141 -286 218 -402 55 -82 61 -96 61 -142 0 -33 -5 -53 -13 -57 -16 -6 -201 57
-268 92 -56 28 -145 98 -196 155 -32 35 -63 51 -63 32 0 -5 13 -48 29 -98 16
-49 41 -128 56 -175 14 -46 30 -89 34 -95 5 -5 12 -21 16 -35 4 -14 20 -52 35
-85 15 -33 37 -85 50 -115 12 -30 40 -91 60 -135 21 -44 46 -106 56 -137 9
-32 25 -65 36 -74 10 -10 18 -22 18 -29 0 -6 13 -32 29 -57 16 -25 32 -60 36
-77 4 -18 26 -54 48 -80 47 -53 69 -82 96 -127 11 -17 39 -41 64 -53 25 -12
54 -30 66 -40 19 -17 286 -268 353 -332 35 -34 160 -137 270 -222 82 -64 209
-131 393 -207 17 -7 44 -20 61 -28 24 -11 35 -12 52 -3 12 6 22 18 22 25 0 23
40 66 83 88 38 20 57 22 179 21 104 -1 148 -5 183 -18 25 -10 45 -22 45 -27 0
-5 10 -8 23 -6 17 2 23 11 25 35 3 29 -6 42 -78 115 -63 65 -80 88 -78 108 5
41 57 39 127 -3 84 -52 117 -67 145 -67 29 0 32 6 45 125 14 112 53 295 85
389 35 103 180 393 244 487 136 202 636 740 971 1045 75 68 273 285 351 384
139 175 217 280 254 341 69 111 313 588 338 660 115 329 143 432 183 669 9 52
23 120 31 152 20 79 33 362 34 751 1 183 5 352 10 377 4 25 13 70 19 100 5 30
15 71 21 90 12 43 13 70 1 70 -5 0 -33 -28 -61 -62 -28 -35 -59 -72 -68 -83
-67 -80 -145 -211 -177 -297 -21 -56 -50 -87 -67 -70 -6 6 -13 53 -14 108 -2
53 -10 149 -18 213 -8 64 -20 163 -26 221 -7 69 -19 126 -35 165 -13 33 -25
74 -25 90 0 17 -19 82 -41 145 -22 63 -45 130 -50 147 -13 43 -127 264 -195
379 -30 50 -54 95 -54 101 0 6 -6 16 -14 22 -8 7 -27 36 -41 64 -15 29 -32 59
-39 67 -12 16 -30 52 -161 325 -98 203 -109 230 -170 407 -24 69 -48 135 -53
145 -5 10 -19 52 -32 93 -12 41 -24 82 -27 90 -10 32 -36 127 -48 180 -8 30
-23 91 -34 135 -40 155 -45 191 -70 500 -11 134 -8 302 6 316 20 20 570 -364
866 -604 330 -267 775 -694 1043 -1001 971 -1114 1612 -2403 1903 -3826 247
-1213 216 -2510 -90 -3700 -330 -1280 -941 -2432 -1827 -3445 -141 -160 -605
-623 -767 -764 -463 -404 -983 -769 -1503 -1056 -67 -37 -126 -65 -129 -61 -4
3 -1 12 5 18 17 17 14 109 -3 132 -8 11 -15 32 -15 47 0 31 -39 65 -100 88
-120 44 -149 53 -218 66 -42 8 -101 15 -130 15 -52 0 -169 27 -213 50 -43 22
-99 83 -99 107 0 29 12 29 112 -3 72 -24 91 -26 167 -20 47 4 100 11 116 16
17 5 64 14 105 20 41 6 93 15 115 19 188 37 222 46 255 71 78 59 134 69 175
30 19 -18 28 -21 37 -12 38 38 -100 212 -168 212 -17 0 -48 7 -67 15 -49 20
-69 19 -130 -9 -29 -13 -97 -42 -152 -65 -55 -23 -107 -46 -115 -50 -15 -8
-96 -28 -231 -57 -81 -17 -222 -15 -241 4 -20 20 10 50 69 67 32 9 76 24 98
34 22 10 56 26 76 35 51 22 126 87 159 135 15 23 37 51 48 62 28 26 28 30 -9
69 -29 30 -31 36 -25 79 9 67 34 136 56 156 34 31 25 45 -29 45 -54 0 -66 -9
-160 -119 l-38 -44 -61 13 c-85 18 -90 11 -89 -93 1 -89 -17 -140 -65 -183
-36 -33 -170 -122 -202 -133 -78 -30 -169 3 -261 95 -54 55 -104 154 -155 309
-51 157 -103 245 -255 435 -96 121 -198 254 -252 330 -18 25 -51 83 -73 129
-37 75 -43 97 -53 200 -14 132 -9 224 13 245 8 9 47 20 87 26 191 27 492 144
623 242 88 67 242 218 386 379 155 176 335 356 404 406 83 60 204 118 315 151
55 17 139 42 188 57 123 37 246 108 382 222 84 70 136 89 266 98 146 9 257 54
451 183 31 20 45 23 77 18 56 -9 163 4 159 19 -2 7 -48 60 -103 119 l-100 107
-145 -5 -145 -4 -115 55 c-146 69 -142 66 -154 86 -21 33 5 39 90 23 43 -8
142 -24 219 -36 77 -11 158 -25 180 -30 22 -5 76 -17 120 -26 86 -19 294 -89
310 -105 5 -5 17 -9 27 -9 17 0 18 8 12 103 -6 87 -11 110 -37 161 -36 67 -66
94 -168 148 -132 70 -315 127 -654 203 -66 14 -142 33 -170 41 -27 8 -68 19
-90 25 -57 16 -194 76 -237 105 -44 28 -48 29 -48 9 0 -47 115 -230 202 -322
56 -59 69 -85 48 -98 -12 -7 -36 6 -230 124 -174 107 -275 152 -510 230 -216
72 -220 72 -220 38 0 -50 62 -117 248 -268 34 -28 62 -52 62 -54 0 -2 3 -11 7
-21 5 -15 2 -16 -27 -11 -18 4 -54 20 -79 35 -25 15 -66 36 -91 47 -25 10 -67
28 -95 40 -42 18 -114 47 -210 85 -95 38 -114 41 -218 42 -84 0 -113 -4 -125
-15 -17 -18 -25 -9 161 -176 70 -63 127 -117 127 -120 0 -3 -4 -12 -9 -20 -15
-23 -62 -3 -196 83 -66 43 -130 85 -143 92 -12 8 -42 19 -67 24 -25 6 -66 15
-92 20 -51 11 -75 1 -56 -22 11 -13 22 -67 26 -122 4 -62 -39 -35 -98 60 -42
70 -145 175 -260 267 -55 44 -120 99 -145 122 -25 24 -137 117 -250 207 -113
90 -216 173 -229 183 -14 11 -50 43 -80 71 -31 28 -146 122 -256 209 -204 162
-246 198 -420 364 -175 168 -283 285 -467 506 -247 296 -357 478 -469 780 -17
44 -39 103 -49 130 -11 28 -20 55 -20 62 0 6 -20 71 -44 145 -25 73 -48 151
-52 173 -3 22 -13 52 -20 67 -8 15 -14 43 -14 62 0 19 -4 45 -9 59 -14 37 -42
300 -46 432 -2 66 -7 259 -10 429 -3 170 -8 312 -10 315 -2 4 -8 78 -15 166
-6 88 -15 180 -20 205 -5 25 -14 91 -20 147 -5 58 -18 120 -29 145 -10 24 -28
66 -39 93 -11 28 -39 97 -62 155 -23 58 -55 143 -72 190 -16 47 -33 94 -38
105 -64 145 -109 408 -86 503 6 27 5 32 -11 32 -29 0 -134 -172 -175 -285 -23
-63 -35 -105 -67 -230 -5 -22 -13 -96 -17 -165 -3 -69 -8 -128 -11 -132 -9
-16 -55 18 -80 60 -14 25 -36 55 -48 66 -27 25 -65 94 -65 117 0 9 -7 22 -15
29 -8 7 -15 19 -15 27 0 9 -9 32 -19 52 -11 20 -32 63 -47 96 -71 162 -152
334 -165 355 -5 8 -18 33 -29 55 -31 63 -190 305 -312 476 -18 25 -49 68 -68
95 -66 94 -192 244 -249 297 -109 100 -343 246 -596 371 -264 131 -385 182
-837 352 -66 24 -122 46 -153 59 -16 7 -57 22 -91 33 -432 147 -618 244 -903
476 -69 56 -140 118 -159 139 -51 55 -64 50 -101 -40 -50 -122 -58 -165 -71
-368 -7 -104 -13 -192 -15 -195 -11 -18 34 -241 80 -395 15 -49 33 -112 40
-140 63 -231 159 -424 306 -612 27 -35 49 -67 49 -72 0 -25 -41 -32 -88 -17
-26 8 -87 24 -137 36 -49 12 -101 25 -115 30 -14 5 -52 16 -85 25 -139 40
-247 80 -350 131 -155 75 -209 109 -338 212 -37 29 -73 52 -79 50 -19 -7 -21
-569 -3 -675 7 -45 19 -91 24 -102 6 -11 11 -28 11 -39 0 -19 77 -178 146
-302 35 -62 95 -157 190 -300 82 -123 242 -302 403 -452 57 -53 75 -88 52
-102 -8 -6 -384 -20 -421 -17 -8 1 -71 1 -140 2 -213 0 -320 18 -532 89 -164
55 -238 96 -328 186 -79 77 -110 91 -130 55 -13 -25 -13 -87 1 -131 5 -19 16
-71 24 -115 27 -164 51 -252 125 -468 53 -156 195 -401 301 -522 178 -201 446
-444 599 -542 70 -45 210 -113 232 -113 8 0 29 -11 48 -25 19 -14 40 -25 47
-25 7 0 17 -10 24 -21 18 -35 -6 -47 -116 -60 -55 -6 -122 -17 -150 -24 -27
-7 -86 -16 -131 -19 -44 -3 -93 -10 -109 -16 -15 -6 -98 -13 -184 -17 -124 -5
-178 -2 -260 11 -105 18 -131 17 -131 -7 0 -18 121 -201 214 -324 69 -92 206
-234 286 -297 19 -16 53 -45 75 -65 162 -150 261 -204 640 -352 98 -39 185
-94 185 -119 0 -21 -345 -42 -728 -45 -161 -1 -296 -5 -299 -9 -9 -9 89 -150
205 -296 130 -164 289 -311 447 -415 519 -340 749 -418 1119 -378 l130 14 30
-29 c17 -15 43 -33 58 -40 17 -7 26 -17 22 -25 -5 -13 -108 -51 -214 -78 -25
-6 -54 -15 -65 -19 -38 -14 -116 -30 -148 -30 -19 0 -56 -6 -83 -14 -61 -18
-331 -40 -440 -37 -53 2 -84 -2 -89 -9 -8 -13 71 -87 204 -193 47 -37 93 -73
101 -80 74 -59 108 -85 136 -102 17 -11 63 -41 100 -66 300 -202 506 -261
1038 -301 161 -12 277 -5 541 32 39 5 79 11 90 12 14 2 20 -3 20 -16 0 -15
-41 -39 -180 -109 -99 -49 -193 -95 -210 -103 -72 -32 -215 -79 -335 -109 -83
-20 -122 -29 -238 -51 -13 -3 -22 -10 -20 -16 7 -20 330 -183 543 -274 134
-57 397 -123 433 -109 8 3 85 6 170 6 86 1 167 5 181 11 14 5 46 14 71 18 25
5 66 14 91 21 52 13 99 6 99 -15 0 -15 -144 -90 -250 -130 -94 -36 -199 -63
-274 -71 -36 -4 -66 -11 -66 -17 0 -20 279 -133 430 -173 142 -38 224 -47 492
-50 278 -4 301 -8 296 -52 -2 -21 -11 -29 -43 -39 -51 -15 -152 -41 -188 -49
-47 -9 -26 -28 66 -60 48 -16 92 -36 99 -42 20 -21 -16 -48 -95 -73 -40 -12
-76 -26 -82 -30 -5 -4 -46 -19 -90 -33 -59 -19 -127 -30 -258 -41 -98 -9 -186
-20 -195 -25 -9 -4 -51 -11 -92 -15 -41 -3 -129 -10 -195 -16 -120 -10 -332
-29 -585 -54 -74 -7 -148 -13 -165 -13 -80 1 -509 -15 -516 -19 -8 -5 -184
-13 -379 -19 -137 -3 -448 -23 -568 -36 -56 -6 -114 -8 -127 -5 -13 3 -89 -1
-167 -10 -79 -9 -188 -17 -243 -19 -55 -1 -161 -8 -235 -13 -74 -6 -155 -12
-180 -13 -49 -1 -308 -24 -434 -38 -46 -5 -89 -6 -102 0 -29 11 -196 -12 -201
-28 -5 -13 59 -59 135 -97 28 -14 91 -36 139 -47 48 -12 100 -27 115 -35 15
-8 44 -14 65 -14 25 0 52 -9 77 -26 34 -24 37 -28 23 -39 -14 -10 -166 -35
-297 -48 -19 -2 -55 -9 -80 -15 -25 -6 -72 -17 -105 -24 -76 -17 -83 -38 -28
-94 67 -69 98 -79 258 -79 77 0 172 1 210 3 109 3 253 -2 261 -10 14 -15 -30
-48 -85 -64 -199 -57 -380 -130 -414 -167 -16 -19 -16 -21 4 -56 59 -98 154
-161 221 -147 18 4 58 12 88 17 98 16 193 36 278 58 82 21 104 21 150 -1 33
-17 30 -57 -6 -64 -57 -12 -212 -163 -212 -206 0 -23 0 -23 127 8 58 14 145
34 192 44 148 32 341 78 466 111 141 37 310 58 326 42 13 -13 -19 -35 -136
-97 -86 -45 -219 -142 -224 -163 -3 -14 20 -15 210 -10 154 3 227 9 259 20 25
9 65 21 90 28 25 7 114 41 197 76 153 63 217 77 253 53 13 -9 13 -11 0 -20 -8
-6 -26 -13 -40 -17 -128 -32 -448 -243 -449 -295 -1 -22 20 -22 214 -3 243 24
296 42 612 206 189 98 237 110 231 62 -2 -19 -12 -32 -33 -42 -87 -42 -115
-58 -168 -97 -58 -42 -187 -182 -187 -203 0 -14 14 -14 54 -1 17 5 110 33 206
61 221 66 250 80 466 231 60 41 151 81 170 74 23 -9 5 -37 -69 -107 -91 -84
-84 -103 18 -48 244 131 440 294 722 602 34 37 66 67 71 67 5 0 21 -9 35 -20
17 -13 58 -26 114 -35 193 -31 340 -91 574 -232 108 -66 270 -152 349 -186 69
-30 137 -47 270 -67 74 -11 153 -25 175 -31 22 -6 78 -15 125 -19 47 -5 108
-13 135 -18 169 -34 209 -37 475 -36 285 1 277 0 400 46 20 7 48 21 63 31 45
29 73 22 101 -25 13 -24 28 -56 32 -73 4 -16 13 -39 20 -50 6 -11 15 -31 19
-45 16 -52 88 -197 122 -243 45 -61 73 -63 108 -7 28 44 56 63 87 58 22 -3 35
-34 74 -178 8 -30 31 -92 52 -138 34 -77 39 -83 62 -79 29 6 124 -44 134 -69
3 -9 6 -32 6 -52 0 -20 14 -80 31 -132 47 -142 50 -150 65 -150 14 0 26 36 50
150 33 152 35 187 18 230 -13 32 -14 43 -4 55 19 23 44 3 98 -78 46 -69 147
-216 220 -322 48 -69 99 -131 142 -174 66 -64 105 -125 120 -184 13 -54 12
-59 -7 -85 -11 -15 -45 -41 -76 -59 -30 -17 -77 -48 -104 -68 -41 -31 -52 -35
-78 -29 -33 9 -101 9 -210 1 -64 -4 -71 -7 -87 -33 -10 -16 -15 -36 -13 -45 7
-20 -7 -52 -40 -98 -28 -38 -34 -108 -14 -170 7 -20 13 -42 16 -50 5 -21 26 1
73 80 23 39 48 73 56 76 9 3 27 -6 43 -21 27 -26 93 -37 105 -17 3 4 26 11 52
15 94 12 175 50 296 137 64 47 114 57 191 41 29 -6 95 -18 147 -28 126 -22
177 -32 225 -43 63 -14 287 -71 320 -81 17 -5 68 -21 115 -36 47 -14 99 -32
117 -40 17 -8 36 -14 42 -14 21 0 195 -60 218 -75 12 -8 45 -15 72 -15 48 0
52 -2 86 -47 19 -25 34 -51 32 -57 -4 -15 -274 -149 -487 -242 -789 -345
-1625 -568 -2475 -663 -366 -41 -480 -46 -970 -46 -513 1 -654 9 -1070 60
-1879 235 -3615 1085 -4955 2425 -931 932 -1619 2043 -2028 3276 -527 1587
-558 3327 -87 4929 339 1153 895 2168 1707 3118 157 183 662 688 845 845 767
655 1557 1134 2453 1487 881 347 1766 535 2760 588 140 8 663 6 825 -3z
m-5159 -15802 c38 -23 53 -37 49 -48 -4 -8 -108 -190 -232 -405 -124 -214
-227 -393 -229 -396 -2 -3 84 -56 191 -118 107 -62 195 -118 195 -124 0 -12
-49 -97 -56 -97 -3 0 -122 68 -265 151 -251 146 -260 152 -246 173 7 11 127
218 266 459 139 240 258 437 263 437 5 0 34 -15 64 -32z m9505 -37 c19 -56 21
-53 -35 -66 -16 -3 -47 -24 -69 -46 -39 -39 -40 -40 -34 -97 4 -51 47 -162 63
-162 3 0 38 18 79 41 41 22 79 38 85 34 11 -7 53 -85 48 -90 -2 -1 -38 -21
-80 -44 l-78 -43 17 -31 c9 -18 78 -144 155 -281 76 -137 138 -254 138 -260 0
-6 -27 -25 -59 -43 -44 -23 -62 -29 -69 -20 -5 7 -76 134 -157 282 -82 149
-150 272 -152 275 -2 2 -24 -7 -49 -20 -45 -25 -45 -25 -60 -5 -9 11 -22 32
-30 48 -14 27 -14 28 16 45 65 36 64 31 29 106 -47 100 -52 195 -15 271 16 32
45 70 71 90 40 34 139 78 159 72 5 -2 18 -27 27 -56z m742 -9 c56 -25 135 -97
177 -161 16 -26 30 -50 30 -53 0 -2 -101 -70 -225 -149 -123 -79 -225 -149
-225 -155 0 -20 85 -91 124 -104 53 -17 142 -8 201 20 28 13 81 55 120 92 38
37 72 68 75 68 3 0 21 -15 39 -34 l33 -34 -21 -31 c-40 -56 -145 -142 -216
-177 -125 -61 -219 -64 -332 -8 -102 49 -208 201 -233 334 -51 263 218 496
453 392z m-1320 -334 c34 -17 46 -39 47 -80 0 -28 -7 -42 -31 -62 -49 -42
-110 -29 -134 28 -33 78 45 153 118 114z m290 -577 c92 -186 167 -342 167
-345 0 -6 -114 -66 -125 -66 -6 0 -139 265 -261 518 l-83 172 57 30 c31 16 62
29 68 30 6 0 86 -153 177 -339z m-803 -173 c91 -219 170 -398 175 -398 6 0
102 38 214 85 112 47 205 84 206 83 8 -12 46 -110 43 -112 -10 -8 -545 -226
-553 -226 -9 0 -400 932 -407 969 -2 9 20 24 62 42 l64 27 16 -36 c9 -21 90
-216 180 -434z m-7702 427 c80 -36 153 -113 173 -182 8 -26 14 -75 13 -108 -1
-65 -35 -181 -63 -216 l-17 -21 -244 116 c-134 64 -244 115 -245 113 -12 -15
-25 -81 -25 -121 1 -95 57 -174 156 -221 55 -26 154 -55 187 -55 18 0 19 -5
13 -46 -8 -64 -12 -67 -65 -59 -135 20 -281 91 -350 170 -125 144 -103 370 55
545 105 116 268 150 412 85z m679 -290 c102 -33 163 -78 197 -146 39 -80 36
-146 -15 -289 -23 -63 -65 -183 -93 -266 l-52 -151 -60 22 c-61 23 -62 25 -49
83 l7 34 -33 -18 c-55 -28 -154 -30 -222 -4 -148 56 -206 187 -141 318 68 136
219 173 443 108 l82 -23 10 24 c27 72 -4 150 -76 190 -48 26 -154 45 -207 37
l-38 -7 0 50 c0 27 3 53 7 56 17 18 164 6 240 -18z m4931 -207 l3 -58 -64 0
c-116 0 -163 -59 -154 -193 2 -37 6 -69 8 -71 2 -2 44 2 92 8 48 7 90 10 91 7
2 -3 7 -29 11 -57 l6 -51 -90 -12 c-55 -8 -91 -17 -91 -24 0 -7 18 -151 41
-320 25 -184 39 -311 33 -316 -5 -5 -37 -12 -71 -16 -60 -7 -62 -6 -67 17 -5
20 -86 607 -86 620 0 3 -24 3 -54 0 l-53 -4 -7 32 c-14 71 -10 78 43 85 l49 7
-2 91 c-1 117 18 178 77 234 69 67 110 83 212 80 l70 -2 3 -57z m1367 -20 c21
-71 20 -73 -25 -87 -50 -15 -99 -56 -116 -98 -28 -66 -18 -145 46 -363 33
-113 60 -208 60 -211 0 -11 -131 -42 -139 -33 -5 5 -48 146 -96 314 -48 168
-96 329 -106 358 -14 40 -15 54 -6 57 28 11 111 34 113 32 1 -1 10 -29 21 -62
16 -48 22 -56 28 -40 23 66 33 84 65 119 37 41 80 65 117 66 18 0 25 -9 38
-52z m-5697 7 c29 -9 52 -17 52 -18 0 -1 -7 -27 -15 -57 -20 -75 -20 -76 22
-40 47 42 92 60 146 60 35 0 108 -16 107 -23 0 -1 -9 -29 -19 -62 -17 -53 -22
-60 -43 -57 -86 12 -135 7 -176 -20 -60 -40 -84 -91 -152 -323 -34 -116 -64
-212 -66 -214 -2 -2 -33 4 -69 14 -43 11 -65 22 -65 32 0 8 38 144 84 301 47
158 92 317 102 355 9 37 22 67 28 67 7 0 36 -7 64 -15z m1530 -51 c21 -24 28
-66 16 -99 -8 -20 -56 -45 -87 -45 -57 0 -99 67 -76 122 25 60 103 72 147 22z
m-1004 -96 l58 -11 -6 -60 -7 -59 38 31 c54 43 146 65 218 52 30 -6 69 -18 87
-27 89 -45 148 -144 148 -249 0 -53 -95 -533 -108 -547 -7 -6 -128 15 -138 24
-2 3 18 112 46 242 27 131 50 254 50 275 0 162 -214 231 -322 103 -34 -41 -39
-57 -93 -317 -26 -121 -48 -221 -50 -223 -5 -5 -129 20 -137 27 -3 3 24 152
62 330 38 178 72 346 75 373 4 26 10 48 14 48 4 0 34 -5 65 -12z m4472 -68
c134 -66 214 -212 214 -390 -1 -90 -23 -161 -71 -223 -109 -143 -314 -197
-472 -124 -182 83 -274 334 -197 539 73 195 333 293 526 198z m-3529 -105 c37
-6 42 -10 38 -28 -2 -12 -25 -173 -50 -357 -25 -184 -48 -346 -51 -359 -5 -22
-7 -23 -72 -16 -37 4 -70 10 -73 13 -4 4 18 176 47 382 29 206 53 377 54 379
0 2 15 1 33 -2 17 -3 51 -9 74 -12z m413 -107 l0 -62 38 36 c75 74 187 99 297
68 37 -10 64 -28 102 -65 87 -88 96 -151 68 -505 -8 -102 -15 -193 -15 -204 0
-17 -6 -18 -70 -14 -39 3 -73 7 -75 10 -3 3 2 103 11 224 18 253 16 328 -15
377 -50 82 -192 91 -275 18 -48 -42 -57 -83 -77 -345 -10 -138 -18 -251 -18
-251 -47 0 -138 8 -143 13 -3 4 5 151 18 327 13 176 23 346 24 378 l0 57 65 0
65 0 0 -62z m1197 17 c21 -9 57 -35 81 -58 l42 -41 0 51 c0 51 1 52 33 58 19
4 47 5 63 3 l29 -3 8 -360 c9 -396 3 -476 -39 -562 -31 -65 -99 -125 -173
-155 -48 -19 -75 -22 -186 -22 -112 0 -138 3 -187 23 -32 12 -58 28 -58 35 0
7 7 34 16 60 13 37 20 46 33 40 75 -33 123 -43 201 -43 172 -1 250 79 250 256
l0 74 -34 -35 c-53 -56 -116 -81 -211 -81 -98 0 -158 25 -227 92 -71 70 -101
146 -106 268 -3 83 0 111 18 164 44 132 134 220 257 251 49 12 143 5 190 -15z"/>
<path d="M15937 7305 c-92 -107 -236 -182 -437 -225 -30 -7 -82 -23 -115 -35
-33 -13 -106 -31 -162 -39 -57 -9 -113 -21 -125 -26 -13 -5 -62 -12 -109 -15
-81 -6 -90 -9 -157 -53 -78 -51 -212 -160 -212 -172 0 -9 74 -36 120 -44 38
-6 269 -17 420 -19 87 -2 95 0 95 17 0 32 -83 57 -194 58 -110 1 -141 9 -141
37 0 28 100 65 157 57 52 -7 149 -47 224 -92 58 -35 216 -111 259 -125 14 -4
54 -18 90 -32 109 -40 159 -41 280 -6 166 49 197 53 286 35 62 -13 84 -23 116
-52 32 -28 42 -33 54 -23 18 15 18 76 1 120 -8 19 -20 68 -27 109 -15 93 -53
206 -93 284 -37 70 -243 286 -273 286 -10 -1 -36 -21 -57 -45z"/>
<path d="M13910 6320 c-143 -115 -213 -175 -294 -259 -189 -194 -275 -264
-433 -351 -24 -13 -43 -29 -43 -36 0 -19 43 -68 169 -195 131 -130 172 -161
287 -213 62 -27 95 -36 136 -36 30 0 58 -4 64 -10 11 -11 143 -60 163 -60 9 0
11 6 6 18 -20 48 -20 49 50 55 67 6 81 3 172 -42 44 -21 62 -5 33 31 -27 35
-26 66 3 73 24 6 105 -28 208 -88 25 -15 66 -31 90 -36 24 -5 74 -20 112 -34
37 -13 69 -21 72 -17 4 7 -37 72 -68 105 -33 36 -59 85 -53 101 7 18 57 11 91
-12 11 -8 29 -14 40 -14 11 0 33 -7 49 -15 15 -8 38 -15 51 -15 12 0 35 -4 51
-10 16 -5 81 -14 144 -20 269 -24 312 -41 401 -158 l51 -67 -6 -65 c-9 -105
-61 -154 -174 -164 -161 -15 -191 -31 -177 -96 7 -32 -8 -68 -37 -88 -14 -10
-18 -26 -18 -70 0 -80 20 -162 41 -162 18 0 39 58 39 107 0 52 35 67 90 38 45
-24 138 -6 190 36 35 28 98 123 123 183 14 36 82 117 112 136 59 35 193 35
415 0 177 -29 264 -37 358 -35 99 1 103 2 135 32 50 48 166 76 202 49 25 -19
55 -20 55 -2 0 7 -9 25 -20 39 -12 14 -25 40 -31 56 -21 60 -110 103 -159 76
-45 -26 -78 -19 -101 20 -12 19 -22 35 -24 35 -2 0 -68 -25 -147 -57 -123 -48
-157 -57 -243 -65 -68 -7 -109 -6 -127 1 -53 20 -30 45 83 95 104 45 380 241
395 281 3 8 -6 29 -20 48 -14 19 -26 39 -26 45 0 22 55 62 117 84 82 28 92 40
56 64 -23 16 -45 19 -133 18 -102 -2 -107 -3 -170 -40 -117 -68 -129 -84 -180
-234 -37 -110 -84 -165 -148 -175 -21 -3 -72 -12 -114 -21 -57 -11 -83 -12
-98 -4 -34 18 -24 45 30 78 80 50 163 173 209 311 26 75 27 110 4 117 -59 18
-64 41 -23 107 20 31 43 54 65 63 66 27 32 62 -48 49 -65 -11 -104 -31 -121
-62 -8 -15 -31 -46 -52 -68 l-38 -40 -3 -126 c-1 -69 -7 -137 -12 -151 -5 -14
-26 -38 -46 -53 -33 -26 -42 -28 -138 -29 -120 -1 -169 14 -267 79 -62 41
-102 74 -248 202 -30 25 -81 68 -115 95 -34 27 -75 60 -90 73 -43 37 -123 70
-227 95 -183 43 -274 86 -405 193 -68 56 -87 79 -135 163 -30 54 -59 99 -65
100 -5 2 -44 -24 -85 -56z"/>
<path d="M15701 2678 c-25 -13 -58 -40 -75 -61 -26 -32 -31 -48 -34 -105 -2
-40 2 -82 10 -105 l14 -38 164 107 c91 58 167 108 169 110 9 8 -32 56 -69 81
-57 37 -122 41 -179 11z"/>
<path d="M6162 2034 c-46 -23 -112 -87 -101 -98 2 -2 84 -42 181 -89 l177 -85
12 35 c36 109 -5 207 -103 248 -54 22 -107 19 -166 -11z"/>
<path d="M6811 1442 c-48 -24 -73 -62 -78 -119 -4 -38 -1 -53 16 -74 60 -76
202 -79 269 -6 27 29 83 159 73 169 -12 13 -162 48 -205 48 -23 0 -56 -8 -75
-18z"/>
<path d="M12383 1305 c-32 -16 -60 -40 -77 -65 -93 -141 -29 -394 117 -464 49
-23 138 -21 187 4 105 53 147 202 100 351 -54 171 -189 242 -327 174z"/>
<path d="M10582 1109 c-53 -16 -115 -85 -136 -152 -27 -85 -19 -203 18 -275
39 -76 98 -112 185 -112 82 0 139 31 177 96 26 44 27 51 25 176 -1 105 -5 137
-20 166 -47 92 -144 131 -249 101z"/>
</g>
</svg>
